<svg width="1772" height="1772" viewBox="0 0 1772 1772" fill="none" xmlns="http://www.w3.org/2000/svg">
<rect width="1391" height="1414" transform="translate(172 158)" fill="white"/>
<g filter="url(#filter0_d_6_9)">
<path d="M1473.43 1222.75C1473.43 1214.34 1472.66 1208.22 1471.13 1204.4C1468.84 1198.28 1454.12 1187 1426.96 1170.55C1399.81 1154.11 1365.96 1135.18 1325.42 1113.76L1264.62 1080.49C1260.79 1078.19 1253.53 1073.22 1242.82 1065.57C1232.11 1057.92 1222.55 1052.19 1214.13 1048.36C1205.72 1044.54 1197.69 1042.62 1190.04 1042.62C1176.27 1042.62 1158.3 1055.05 1136.12 1079.91C1113.93 1104.77 1092.14 1129.82 1070.72 1155.06C1049.3 1180.3 1032.47 1192.92 1020.24 1192.92C1014.88 1192.92 1008.57 1191.59 1001.31 1188.91C994.039 1186.23 988.112 1183.75 983.522 1181.45C978.933 1179.16 972.432 1175.52 964.018 1170.55C955.604 1165.58 950.25 1162.33 947.955 1160.8C872.232 1118.73 807.026 1070.35 752.337 1015.66C697.648 960.974 649.269 895.768 607.201 820.045C605.671 817.75 602.42 812.396 597.449 803.982C592.477 795.568 588.844 789.067 586.549 784.478C584.254 779.888 581.769 773.961 579.092 766.694C576.414 759.428 575.076 753.118 575.076 747.763C575.076 737.82 582.916 725.008 598.596 709.328C614.276 693.648 631.486 678.924 650.225 665.156C668.965 651.388 686.175 636.282 701.855 619.837C717.535 603.392 725.375 589.433 725.375 577.96C725.375 570.311 723.463 562.28 719.638 553.866C715.814 545.452 710.077 535.891 702.429 525.183C694.78 514.475 689.808 507.208 687.513 503.384C685.219 498.795 679.482 487.895 670.304 470.685C661.125 453.475 651.564 436.074 641.621 418.482C631.677 400.89 621.542 382.724 611.217 363.984C600.891 345.245 591.33 329.756 582.533 317.518C573.737 305.28 567.427 298.396 563.603 296.866C559.778 295.336 553.659 294.571 545.246 294.571C508.531 294.571 469.905 302.985 429.366 319.813C394.182 335.875 363.586 372.016 337.58 428.234C311.574 484.453 298.571 534.362 298.571 577.96C298.571 590.198 299.528 603.201 301.44 616.969C303.352 630.737 305.264 642.401 307.176 651.962C309.089 661.523 312.531 674.144 317.502 689.824C322.474 705.504 326.298 716.786 328.975 723.67C331.653 730.554 336.433 743.174 343.317 761.531C350.201 779.888 354.408 791.362 355.938 795.951C401.83 921.391 484.629 1043.96 604.333 1163.67C724.036 1283.37 846.609 1366.17 972.049 1412.06C976.638 1413.59 988.112 1417.8 1006.47 1424.68C1024.83 1431.57 1037.45 1436.35 1044.33 1439.02C1051.21 1441.7 1062.5 1445.53 1078.18 1450.5C1093.86 1455.47 1106.48 1458.91 1116.04 1460.82C1125.6 1462.74 1137.26 1464.65 1151.03 1466.56C1164.8 1468.47 1177.8 1469.43 1190.04 1469.43C1233.64 1469.43 1283.55 1456.43 1339.77 1430.42C1395.98 1404.41 1432.12 1373.82 1448.19 1338.63C1465.01 1298.1 1473.43 1259.47 1473.43 1222.75ZM1767.14 331.286V1432.71C1767.14 1523.74 1734.83 1601.56 1670.19 1666.19C1605.56 1730.83 1527.74 1763.14 1436.71 1763.14H335.286C244.265 1763.14 166.438 1730.83 101.806 1666.19C37.1734 1601.56 4.85718 1523.74 4.85718 1432.71V331.286C4.85718 240.265 37.1734 162.438 101.806 97.8058C166.438 33.1734 244.265 0.857178 335.286 0.857178H1436.71C1527.74 0.857178 1605.56 33.1734 1670.19 97.8058C1734.83 162.438 1767.14 240.265 1767.14 331.286Z" fill="#5E3448"/>
</g>
<defs>
<filter id="filter0_d_6_9" x="0.857178" y="0.857178" width="1770.29" height="1770.29" filterUnits="userSpaceOnUse" color-interpolation-filters="sRGB">
<feFlood flood-opacity="0" result="BackgroundImageFix"/>
<feColorMatrix in="SourceAlpha" type="matrix" values="0 0 0 0 0 0 0 0 0 0 0 0 0 0 0 0 0 0 127 0" result="hardAlpha"/>
<feOffset dy="4"/>
<feGaussianBlur stdDeviation="2"/>
<feComposite in2="hardAlpha" operator="out"/>
<feColorMatrix type="matrix" values="0 0 0 0 0 0 0 0 0 0 0 0 0 0 0 0 0 0 0.25 0"/>
<feBlend mode="normal" in2="BackgroundImageFix" result="effect1_dropShadow_6_9"/>
<feBlend mode="normal" in="SourceGraphic" in2="effect1_dropShadow_6_9" result="shape"/>
</filter>
</defs>
</svg>
